<svg width="99" height="56" viewBox="0 0 99 56" fill="none" xmlns="http://www.w3.org/2000/svg">
<g clip-path="url(#clip0_3864_544252)">
<path d="M74.815 12.8725C76.0966 12.8849 77.3441 13.2864 78.3925 14.0237C79.4408 14.7611 80.2405 15.7995 80.6857 17.0015H68.9443C69.3895 15.7995 70.1892 14.7611 71.2376 14.0237C72.2859 13.2864 73.5335 12.8849 74.815 12.8725ZM85.9624 20.586C86.0058 20.1848 86.0289 19.7816 86.0317 19.378C86.0317 16.3579 84.8322 13.4616 82.6971 11.3261C80.562 9.19056 77.6662 7.99084 74.6467 7.99084C71.6272 7.99084 68.7314 9.19056 66.5963 11.3261C64.4612 13.4616 63.2617 16.3579 63.2617 19.378C63.2785 20.856 63.5864 22.3163 64.1678 23.6752C64.7492 25.0342 65.5927 26.2652 66.65 27.2979C67.7073 28.3307 68.9578 29.1448 70.33 29.6939C71.7021 30.2429 73.169 30.5161 74.6467 30.4978C76.895 30.5084 79.096 29.853 80.9724 28.6142C82.8487 27.3754 84.3164 25.6087 85.1902 23.5368L80.2897 22.6753C79.7588 23.6737 78.9678 24.51 78.0006 25.0957C77.0334 25.6814 75.9259 25.9946 74.7952 26.0023C73.282 25.9779 71.8265 25.4171 70.688 24.4198C69.5494 23.4225 68.8017 22.0534 68.578 20.5563H85.9426L85.9624 20.586Z" fill="black"/>
<path d="M60.2213 8.71362H54.4199V30.0918H60.2213V8.71362Z" fill="black"/>
<path d="M57.3213 3.79708e-06C56.681 3.79708e-06 56.0551 0.189904 55.5227 0.54569C54.9904 0.901476 54.5754 1.40717 54.3304 1.99882C54.0854 2.59047 54.0213 3.24151 54.1462 3.8696C54.2711 4.49769 54.5794 5.07463 55.0322 5.52746C55.4849 5.98029 56.0617 6.28867 56.6897 6.41361C57.3177 6.53854 57.9686 6.47442 58.5601 6.22935C59.1517 5.98428 59.6573 5.56927 60.013 5.0368C60.3687 4.50433 60.5586 3.87831 60.5586 3.23791C60.5592 2.81252 60.4759 2.39118 60.3135 1.99805C60.151 1.60491 59.9126 1.24771 59.6119 0.946912C59.3111 0.646114 58.954 0.407636 58.5609 0.245147C58.1679 0.0826579 57.7466 -0.000648145 57.3213 3.79708e-06Z" fill="black"/>
<path d="M18.8694 1.86157V13.3675H6.3558V1.86157H0V30.0819H6.3558V18.566H18.8694V30.0819H25.2252V1.86157H18.8694Z" fill="black"/>
<path d="M39.6007 25.8042C38.3311 25.7906 37.0938 25.4015 36.0447 24.686C34.9957 23.9705 34.1817 22.9606 33.7052 21.7834C33.2288 20.6062 33.1112 19.3143 33.3673 18.0704C33.6233 16.8265 34.2416 15.6862 35.1443 14.793C36.0469 13.8998 37.1936 13.2937 38.4399 13.0509C39.6863 12.8081 40.9765 12.9395 42.1484 13.4287C43.3202 13.9178 44.3211 14.7427 45.0252 15.7996C45.7293 16.8564 46.105 18.098 46.105 19.368C46.1012 20.218 45.9298 21.0588 45.6007 21.8425C45.2716 22.6261 44.7912 23.3372 44.1871 23.935C43.583 24.5327 42.867 25.0055 42.08 25.3263C41.293 25.647 40.4505 25.8094 39.6007 25.8042ZM45.1052 8.72352V9.87213C43.4246 8.85234 41.5037 8.29643 39.5383 8.26108C37.573 8.22572 35.6333 8.71218 33.9172 9.67087C32.201 10.6296 30.7697 12.0262 29.769 13.7185C28.7684 15.4107 28.2342 17.3381 28.221 19.3041C28.2077 21.2701 28.7158 23.2045 29.6936 24.9101C30.6713 26.6157 32.0837 28.0315 33.7868 29.0133C35.4899 29.995 37.4227 30.5076 39.3884 30.4988C41.3541 30.4899 43.2823 29.96 44.9764 28.9629V30.0818H50.6393V8.72352H45.1052Z" fill="black"/>
<path d="M98.0388 6.72339C95.4013 7.19509 93.0113 8.57317 91.2815 10.6197C89.5517 12.6662 88.5907 15.2526 88.5645 17.9323V30.0918H94.1184V17.7145C94.1132 16.3542 94.6072 15.0392 95.5068 14.019C96.4064 12.9988 97.649 12.3442 98.9991 12.1793L98.0388 6.72339Z" fill="black"/>
<path d="M97.7922 36.4388H0V56H97.7922V36.4388Z" fill="black"/>
<path d="M3.63867 40.5382H5.12367V47.2467L11.0637 40.5382H12.8704L8.53917 45.5486L13.1971 52.3858H11.4399L7.47987 46.6625L5.13357 49.3113V52.3858H3.64857L3.63867 40.5382Z" fill="white"/>
<path d="M14.4789 41.3997C14.4789 41.2224 14.5314 41.0492 14.6299 40.9018C14.7283 40.7544 14.8682 40.6396 15.032 40.5718C15.1957 40.5039 15.3758 40.4862 15.5496 40.5208C15.7234 40.5553 15.8831 40.6407 16.0084 40.766C16.1337 40.8913 16.219 41.051 16.2536 41.2248C16.2881 41.3987 16.2704 41.5788 16.2026 41.7426C16.1348 41.9063 16.0199 42.0463 15.8726 42.1448C15.7253 42.2432 15.552 42.2958 15.3748 42.2958C15.2562 42.2992 15.1382 42.2784 15.028 42.2345C14.9177 42.1907 14.8176 42.1248 14.7337 42.0409C14.6498 41.957 14.5839 41.8569 14.5401 41.7466C14.4963 41.6363 14.4755 41.5183 14.4789 41.3997ZM14.667 43.7464H16.053V52.361H14.667V43.7464Z" fill="white"/>
<path d="M18.9977 45.0139H17.4434V43.7465H18.9977V41.3304H20.3837V43.7465H22.6112V45.0139H20.3837V50.0985C20.3837 50.8263 20.6361 51.0887 21.3737 51.0887H22.7696V52.3562H21.2846C19.6263 52.3562 19.0373 51.6333 19.0373 50.1134L18.9977 45.0139Z" fill="white"/>
<path d="M23.7148 48.0736C23.7148 45.4397 25.4176 43.6475 27.9174 43.6475C30.031 43.6475 31.3824 44.8307 31.719 46.722H30.2637C30.1672 46.1775 29.8726 45.6879 29.4366 45.3478C29.0005 45.0077 28.4541 44.8412 27.9025 44.8802C26.2443 44.8802 25.1305 46.1972 25.1305 48.0736C25.1305 49.95 26.2443 51.2323 27.9025 51.2323C28.4446 51.2594 28.9786 51.0923 29.4086 50.7611C29.8386 50.4299 30.1365 49.9563 30.2488 49.4252H31.7338C31.3972 51.2818 29.9914 52.4651 27.8976 52.4651C25.3681 52.4799 23.7148 50.757 23.7148 48.0736Z" fill="white"/>
<path d="M41.3284 47.5636V52.361H39.9424V47.6477C39.9424 45.8605 39.0811 44.9148 37.5961 44.9148C35.9923 44.9148 34.9973 46.113 34.9973 48.0537V52.361H33.6113V40.5382H34.9973V45.1673C35.2901 44.6826 35.708 44.2857 36.2071 44.0182C36.7061 43.7508 37.268 43.6227 37.8337 43.6474C39.7592 43.6474 41.3284 44.7118 41.3284 47.5636Z" fill="white"/>
<path d="M43.1641 48.0538C43.1641 45.4397 44.8174 43.6475 47.2478 43.6475C49.6783 43.6475 51.2722 45.1822 51.3365 47.7369C51.3365 47.9201 51.3365 48.1231 51.3019 48.3261H44.6144V48.4449C44.6689 50.0837 45.6985 51.2323 47.3369 51.2323C47.8853 51.2698 48.4296 51.1148 48.876 50.794C49.3224 50.4731 49.6429 50.0066 49.7822 49.4747H51.1831C51.0178 50.3367 50.5486 51.1107 49.8609 51.6558C49.1732 52.201 48.3127 52.4811 47.4359 52.4453C44.852 52.4799 43.1641 50.6926 43.1641 48.0538ZM49.8515 47.1775C49.8405 46.8537 49.764 46.5355 49.6267 46.242C49.4895 45.9486 49.2943 45.6859 49.0529 45.4699C48.8115 45.2539 48.5288 45.089 48.222 44.9851C47.9152 44.8812 47.5906 44.8405 47.2676 44.8654C46.6276 44.8588 46.0085 45.0927 45.5328 45.5209C45.057 45.949 44.7593 46.5402 44.6986 47.1775H49.8515Z" fill="white"/>
<path d="M60.9932 47.5636V52.361H59.6072V47.6477C59.6072 45.8605 58.7806 44.9148 57.2758 44.9148C55.6522 44.9148 54.677 46.113 54.677 48.0537V52.361H53.291V43.7464H54.4889L54.677 44.9148C55.0138 44.4919 55.4472 44.156 55.9408 43.9354C56.4343 43.7148 56.9737 43.6161 57.5134 43.6474C59.4538 43.6474 60.9932 44.7118 60.9932 47.5636Z" fill="white"/>
<path d="M68.0625 52.361V40.5382H69.5475V50.9946H74.938V52.3462L68.0625 52.361Z" fill="white"/>
<path d="M83.7086 46.7566V52.3611H82.5107L82.3919 51.0095C82.0773 51.4805 81.6462 51.8622 81.1405 52.1172C80.6348 52.3723 80.0717 52.4921 79.506 52.4651C77.6151 52.4651 76.3281 51.5194 76.3281 49.945C76.3281 48.2221 77.531 47.2616 79.7931 47.2616H82.3275V46.6725C82.3275 45.5536 81.5306 44.8802 80.1792 44.8802C78.9665 44.8802 78.1547 45.4546 77.9864 46.3309H76.6004C76.8033 44.6426 78.1695 43.6475 80.2485 43.6475C82.4414 43.6475 83.7086 44.7466 83.7086 46.7566ZM82.3275 48.4251H79.6595C78.422 48.4251 77.7339 48.8806 77.7339 49.8609C77.7339 50.7075 78.4566 51.2818 79.605 51.2818C81.3276 51.2818 82.3275 50.2916 82.3275 48.8509V48.4251Z" fill="white"/>
<path d="M94.4649 48.0537C94.4649 50.6926 92.7077 52.465 90.3267 52.465C88.8714 52.465 87.8913 51.8709 87.3567 51.0441L87.1686 52.361H85.9707V40.5382H87.3567V45.1327C87.6879 44.6562 88.1333 44.2705 88.6522 44.011C89.1712 43.7515 89.7469 43.6265 90.3267 43.6474C92.7077 43.6474 94.4649 45.2515 94.4649 48.0537ZM93.0443 48.0537C93.0443 46.1823 91.8959 44.8802 90.1881 44.8802C88.4804 44.8802 87.3518 46.1823 87.3518 48.024C87.3518 49.8658 88.5002 51.2322 90.1881 51.2322C91.8761 51.2322 93.0591 49.9301 93.0591 48.0537H93.0443Z" fill="white"/>
</g>
<defs>
<clipPath id="clip0_3864_544252">
<rect width="99" height="56" fill="white"/>
</clipPath>
</defs>
</svg>
