<svg width="32" height="32" viewBox="0 0 32 32" fill="none" xmlns="http://www.w3.org/2000/svg">
<path d="M3.59375 9.58002L15.5937 14.9134L16.4071 13.0867L4.40708 7.75336L3.59375 9.58002ZM17.0004 28.6667V14H15.0004V28.6667H17.0004ZM16.4071 14.9134L28.4071 9.58002L27.5937 7.75336L15.5937 13.0867L16.4071 14.9134Z" fill="url(#paint0_linear_4044_1665)"/>
<path d="M4 22.8133V9.18667C4.00004 9.03204 4.04489 8.88073 4.12913 8.75105C4.21338 8.62138 4.33339 8.51889 4.47467 8.45601L15.6747 3.47734C15.7771 3.43176 15.8879 3.4082 16 3.4082C16.1121 3.4082 16.2229 3.43176 16.3253 3.47734L27.5253 8.45601C27.6666 8.51889 27.7866 8.62138 27.8709 8.75105C27.9551 8.88073 28 9.03204 28 9.18667V22.8133C28 22.968 27.9551 23.1193 27.8709 23.249C27.7866 23.3786 27.6666 23.4811 27.5253 23.544L16.3253 28.5227C16.2229 28.5683 16.1121 28.5918 16 28.5918C15.8879 28.5918 15.7771 28.5683 15.6747 28.5227L4.47467 23.544C4.33339 23.4811 4.21338 23.3786 4.12913 23.249C4.04489 23.1193 4.00004 22.968 4 22.8133Z" stroke="url(#paint1_linear_4044_1665)" stroke-width="1.5" stroke-linecap="round" stroke-linejoin="round"/>
<path d="M10 6L21.5253 11.1227C21.6666 11.1856 21.7866 11.288 21.8709 11.4177C21.9551 11.5474 22 11.6987 22 11.8533V16.6667" stroke="url(#paint2_linear_4044_1665)" stroke-width="1.5" stroke-linecap="round" stroke-linejoin="round"/>
<defs>
<linearGradient id="paint0_linear_4044_1665" x1="16.0004" y1="7.75336" x2="16.0004" y2="28.6667" gradientUnits="userSpaceOnUse">
<stop stop-color="#4238F5"/>
<stop offset="1" stop-color="#7B74F8"/>
</linearGradient>
<linearGradient id="paint1_linear_4044_1665" x1="16" y1="3.4082" x2="16" y2="28.5918" gradientUnits="userSpaceOnUse">
<stop stop-color="#4238F5"/>
<stop offset="1" stop-color="#7B74F8"/>
</linearGradient>
<linearGradient id="paint2_linear_4044_1665" x1="16" y1="6" x2="16" y2="16.6667" gradientUnits="userSpaceOnUse">
<stop stop-color="#4238F5"/>
<stop offset="1" stop-color="#7B74F8"/>
</linearGradient>
</defs>
</svg>
