<svg width="32" height="32" viewBox="0 0 32 32" fill="none" xmlns="http://www.w3.org/2000/svg">
<path d="M27.7339 18.9627H4.87257C4.69816 18.9625 4.52847 19.0194 4.38934 19.1245C4.25022 19.2297 4.14928 19.3775 4.1019 19.5454L2.2939 25.9414C2.18182 26.3379 2.16316 26.755 2.23937 27.1599C2.31557 27.5648 2.48458 27.9466 2.73313 28.2752C2.98168 28.6039 3.303 28.8705 3.67189 29.054C4.04078 29.2376 4.44719 29.3332 4.85923 29.3334H27.1419C27.5539 29.3332 27.9604 29.2376 28.3292 29.054C28.6981 28.8705 29.0195 28.6039 29.268 28.2752C29.5166 27.9466 29.6856 27.5648 29.7618 27.1599C29.838 26.755 29.8193 26.3379 29.7072 25.9414L27.7339 18.9627ZM27.7339 18.9627V10.816M4.26723 18.9627V5.33335C4.26723 4.62611 4.54819 3.94783 5.04828 3.44774C5.54838 2.94764 6.22666 2.66669 6.9339 2.66669H16.0006M14.6672 25.3334H17.3339M23.5432 6.43735L19.7712 10.2094M27.3139 6.43735C27.0679 6.69205 26.7737 6.8952 26.4483 7.03496C26.123 7.17471 25.773 7.24828 25.419 7.25135C25.0649 7.25443 24.7137 7.18696 24.386 7.05288C24.0583 6.9188 23.7606 6.72079 23.5102 6.47041C23.2598 6.22003 23.0618 5.92229 22.9277 5.59456C22.7936 5.26684 22.7262 4.9157 22.7292 4.56162C22.7323 4.20754 22.8059 3.85762 22.9456 3.53228C23.0854 3.20693 23.2885 2.91268 23.5432 2.66669M19.7712 13.98C20.257 13.4771 20.5258 12.8035 20.5197 12.1043C20.5136 11.4051 20.2332 10.7363 19.7388 10.2418C19.2443 9.74742 18.5755 9.46697 17.8763 9.46089C17.1771 9.45481 16.5035 9.7236 16.0006 10.2094" stroke="url(#paint0_linear_4044_1677)" stroke-width="1.5" stroke-linecap="round" stroke-linejoin="round"/>
<defs>
<linearGradient id="paint0_linear_4044_1677" x1="16.0006" y1="2.66669" x2="16.0006" y2="29.3334" gradientUnits="userSpaceOnUse">
<stop stop-color="#7B74F8"/>
<stop offset="1" stop-color="#4238F5"/>
</linearGradient>
</defs>
</svg>
